# xmcd
#
# Track frame offsets:
#  150
#  21692
#  36087
#  49674
#  71809
#  90976
#  104931
#  122072
#  142243
#  164305
#  180391
#  198083
#  226619
#  254053
#  266955
#
# Disc length: 3771 seconds
#
# Revision: 0
# Processed by: cddbd v1.5.1PL2 Copyright (c) Steve Scherf et al.
# Submitted via: Collectorz.com_Music_Collector 6.11
#
DISCID=df0eb90f
DTITLE=Various Artist - Magazine Uncut - Uncut Presents The Year's Essential Music 
DYEAR=2005
DGENRE=rock
TTITLE0=Devendra Banhart - I Feel Just Like a Child
TTITLE1=Josh Rouse - Winter in The Hamptons
TTITLE2=National - Lit Up
TTITLE3=John Cale - In A Flood
TTITLE4=Bright Eyes - Another Travelin' Song
TTITLE5=Big Star - Hung Up With Summer
TTITLE6=Robert Plant and The Strange Sensation - Tin Pan Alley
TTITLE7=Hal - I Sat Down
TTITLE8=Ry Cooder - Chinito Chinito
TTITLE9=Anthony And The Johnsons - My Lady Story
TTITLE10=My Morning Jacket - Anytime
TTITLE11=Sufjan Stevens - The Man In Metropolis Steals Our Hearts
TTITLE12=Black Mountain - Don't Run Our Hearts Around
TTITLE13=Franz Ferdinand - Eleanor Put Your Boots On
TTITLE14=Arcade Fire - Neighbourhood #2
EXTD=
EXTT0=
EXTT1=
EXTT2=
EXTT3=
EXTT4=
EXTT5=
EXTT6=
EXTT7=
EXTT8=
EXTT9=
EXTT10=
EXTT11=
EXTT12=
EXTT13=
EXTT14=
PLAYORDER=
